<svg width="41" height="41" viewBox="0 0 41 41" fill="none" xmlns="http://www.w3.org/2000/svg">
<rect width="41" height="41" rx="20.5" fill="#171922"/>
<rect width="41" height="41" rx="20.5" fill="url(#paint0_linear_530_7922)"/>
<path d="M40 4C40 4 24.8363 17.6374 24.5714 20.9871C24.3065 24.3367 30.8163 37 30.8163 37C30.8163 37 20.3845 25.6026 16.8571 25.8654C13.2514 26.134 5.40365 34.0635 5.40365 34.0635C5.40365 34.0635 13.4478 24.5839 12.8163 20.9871C11.7143 14.7102 4 8.38714 4 8.38714C4 8.38714 14.7264 15.5058 18.2633 15.5058C26.6682 15.5058 40 4 40 4Z" fill="white"/>
<path d="M13.9184 23.6384L16.1665 18.4423H17.3194L19.5747 23.6384H18.3498L16.5052 19.051H16.9663L15.1145 23.6384H13.9184ZM15.0424 22.525L15.3523 21.6119H17.9463L18.2633 22.525H15.0424Z" fill="url(#paint1_linear_530_7922)"/>
<path d="M20.098 23.6384V18.4423H21.2653V23.6384H20.098Z" fill="url(#paint2_linear_530_7922)"/>
<defs>
<linearGradient id="paint0_linear_530_7922" x1="0" y1="20.5" x2="41" y2="20.5" gradientUnits="userSpaceOnUse">
<stop stop-color="#0E1948"/>
<stop offset="1" stop-color="#223CAE"/>
</linearGradient>
<linearGradient id="paint1_linear_530_7922" x1="-1.5102" y1="20.5" x2="97.6734" y2="20.5" gradientUnits="userSpaceOnUse">
<stop stop-color="#223CAE"/>
<stop offset="1" stop-color="#0E1948"/>
</linearGradient>
<linearGradient id="paint2_linear_530_7922" x1="-1.5102" y1="20.5" x2="97.6734" y2="20.5" gradientUnits="userSpaceOnUse">
<stop stop-color="#223CAE"/>
<stop offset="1" stop-color="#0E1948"/>
</linearGradient>
</defs>
</svg>
