<svg width="92" height="38" viewBox="0 0 92 38" fill="none" xmlns="http://www.w3.org/2000/svg">
<rect width="92" height="38" rx="19" fill="#171922"/>
<rect width="92" height="38" rx="19" fill="url(#paint0_linear_530_7906)"/>
<path d="M12.0987 17.1462V6.21855H17.5415C18.8131 6.21855 19.9313 6.44231 20.896 6.88982C21.8607 7.33734 22.6116 7.96698 23.1488 8.77875C23.6969 9.59051 23.971 10.5584 23.971 11.6824C23.971 12.796 23.6969 13.7638 23.1488 14.586C22.6116 15.3978 21.8607 16.0274 20.896 16.4749C19.9313 16.9224 18.8131 17.1462 17.5415 17.1462H12.0987ZM15.3545 14.6797H17.4099C18.0677 14.6797 18.6377 14.5652 19.1201 14.3362C19.6134 14.0969 19.9971 13.7534 20.2711 13.3059C20.5452 12.848 20.6822 12.3068 20.6822 11.6824C20.6822 11.0475 20.5452 10.5064 20.2711 10.0588C19.9971 9.61133 19.6134 9.27309 19.1201 9.04413C18.6377 8.80476 18.0677 8.68508 17.4099 8.68508H15.3545V14.6797Z" fill="white"/>
<path d="M25.4576 17.1462L30.5386 6.21855H33.7451L38.8427 17.1462H35.4553L31.4759 7.73281H32.7585L28.7792 17.1462H25.4576ZM28.2365 15.0231L29.0752 12.7439H34.6989L35.5375 15.0231H28.2365Z" fill="white"/>
<path d="M45.1263 17.3648C44.1835 17.3648 43.2737 17.2555 42.3967 17.0369C41.5306 16.808 40.8236 16.5166 40.2754 16.1627L41.3443 13.8835C41.8595 14.1957 42.4515 14.4559 43.1202 14.6641C43.7999 14.8618 44.474 14.9607 45.1427 14.9607C45.5922 14.9607 45.954 14.9242 46.228 14.8514C46.5021 14.7681 46.6994 14.6641 46.82 14.5392C46.9516 14.4039 47.0173 14.2478 47.0173 14.0708C47.0173 13.8211 46.8967 13.6233 46.6556 13.4776C46.4144 13.3319 46.102 13.2122 45.7183 13.1186C45.3346 13.0249 44.9071 12.9313 44.4357 12.8376C43.9753 12.7439 43.5094 12.6242 43.038 12.4785C42.5775 12.3328 42.1555 12.1455 41.7718 11.9165C41.3881 11.6772 41.0757 11.3702 40.8345 10.9955C40.5934 10.6104 40.4728 10.1265 40.4728 9.54368C40.4728 8.88802 40.6591 8.29481 41.0318 7.76404C41.4155 7.23326 41.9856 6.80657 42.742 6.48394C43.4984 6.16131 44.4412 6 45.5703 6C46.3267 6 47.0667 6.08326 47.7902 6.24978C48.5247 6.40588 49.1769 6.64005 49.747 6.95227L48.7439 9.24707C48.1958 8.96608 47.6531 8.75793 47.116 8.62264C46.5788 8.47693 46.0581 8.40408 45.5538 8.40408C45.1044 8.40408 44.7426 8.45092 44.4686 8.54458C44.1945 8.62784 43.9972 8.74232 43.8766 8.88802C43.756 9.03372 43.6957 9.20024 43.6957 9.38757C43.6957 9.62694 43.8108 9.81947 44.041 9.96518C44.2822 10.1005 44.5946 10.215 44.9783 10.3086C45.373 10.3919 45.8005 10.4803 46.2609 10.574C46.7323 10.6677 47.1982 10.7874 47.6586 10.9331C48.13 11.0683 48.5575 11.2557 48.9412 11.495C49.3249 11.724 49.6319 12.031 49.8621 12.4161C50.1032 12.7908 50.2238 13.2643 50.2238 13.8367C50.2238 14.4715 50.032 15.0595 49.6483 15.6007C49.2756 16.1315 48.711 16.5582 47.9546 16.8808C47.2092 17.2034 46.2664 17.3648 45.1263 17.3648Z" fill="white"/>
<path d="M17.4099 32C15.7108 32 14.3843 31.5577 13.4306 30.6731C12.4769 29.7885 12 28.5344 12 26.9108V20.8538H15.2558V26.8172C15.2558 27.7538 15.4477 28.4251 15.8314 28.831C16.226 29.2369 16.7632 29.4398 17.4428 29.4398C18.1225 29.4398 18.6542 29.2369 19.0379 28.831C19.4216 28.4251 19.6134 27.7538 19.6134 26.8172V20.8538H22.8199V26.9108C22.8199 28.5344 22.343 29.7885 21.3893 30.6731C20.4356 31.5577 19.1091 32 17.4099 32Z" fill="white"/>
<path d="M30.2588 31.7814V23.3047H26.7235V20.8538H37.0336V23.3047H33.5147V31.7814H30.2588Z" fill="white"/>
<path d="M44.3373 31.7814V27.1606L45.0937 29.0183L39.9468 20.8538H43.3835L47.0998 26.7703H45.1101L48.8428 20.8538H52L46.8696 29.0183L47.5931 27.1606V31.7814H44.3373Z" fill="white"/>
<rect x="58" y="4" width="30" height="30" rx="15" fill="white"/>
<path d="M64.5 25L69.7019 13H72.3696L77.5881 25H74.7538L70.4855 14.4057H71.5526L67.2677 25H64.5ZM67.101 22.4286L67.8179 20.32H73.8201L74.5537 22.4286H67.101Z" fill="url(#paint1_linear_530_7906)"/>
<path d="M78.799 25V13H81.5V25H78.799Z" fill="url(#paint2_linear_530_7906)"/>
<defs>
<linearGradient id="paint0_linear_530_7906" x1="0" y1="19" x2="92" y2="19" gradientUnits="userSpaceOnUse">
<stop stop-color="#0E1948"/>
<stop offset="1" stop-color="#223CAE"/>
</linearGradient>
<linearGradient id="paint1_linear_530_7906" x1="64.6506" y1="18.5714" x2="83.4075" y2="18.5714" gradientUnits="userSpaceOnUse">
<stop stop-color="#0E1948"/>
<stop offset="1" stop-color="#223CAE"/>
</linearGradient>
<linearGradient id="paint2_linear_530_7906" x1="64.6506" y1="18.5714" x2="83.4075" y2="18.5714" gradientUnits="userSpaceOnUse">
<stop stop-color="#0E1948"/>
<stop offset="1" stop-color="#223CAE"/>
</linearGradient>
</defs>
</svg>
